<svg width="97" height="32" viewBox="0 0 97 32" fill="none" xmlns="http://www.w3.org/2000/svg">
<path d="M17.9545 7.01481C16.6903 3.10857 15.9545 9.10857 15.142 6.0347C14.1619 2.32663 11.1932 5.71082 11.0938 3.60855C6.55396 2.80456 11.3116 5.65591 10.4403 6.0347C9.56913 6.40401 6.95453 2.60855 5.86648 7.01481C2.14489 6.60857 5.15625 8.39265 5.15625 9.21652C5.15625 9.9078 5.31723 10.5044 5.6392 11.0063C5.97064 11.5082 6.40152 11.9296 6.93182 12.2705C7.47159 12.6019 8.04924 12.8813 8.66477 13.1086C9.2803 13.3264 9.87216 13.5063 10.4403 13.6483L13.2812 14.387C14.2093 14.6142 15.161 14.922 16.1364 15.3103C17.1117 15.6985 18.0161 16.2099 18.8494 16.8444C19.6828 17.4788 20.3551 18.2648 20.8665 19.2023C21.3873 20.1398 21.6477 21.262 21.6477 22.5688C21.6477 24.2165 21.2216 25.6796 20.3693 26.958C19.5265 28.2364 18.3002 29.2449 16.6903 29.9836C15.09 30.7222 13.1534 31.0915 10.8807 31.0915C8.70265 31.0915 6.81818 30.7459 5.22727 30.0546C3.63636 29.3633 2.3911 28.3832 1.49148 27.1142C0.591856 25.8358 0.0946969 24.3207 0 22.5688H4.40341C4.48864 23.6199 4.82955 24.4959 5.42614 25.1966C6.0322 25.8879 6.80398 26.404 7.74148 26.7449C8.68845 27.0764 9.72538 27.2421 10.8523 27.2421C12.0928 27.2421 13.196 27.048 14.1619 26.6597C15.1373 26.262 15.9044 25.7127 16.4631 25.012C17.0218 24.3017 17.3011 23.4731 17.3011 22.5262C17.3011 21.6644 17.0549 20.9589 16.5625 20.4097C16.0795 19.8605 15.4214 19.4059 14.5881 19.0461C13.7642 18.6862 12.8314 18.369 11.7898 18.0944L8.35227 17.1569C6.02273 16.5224 4.17614 15.5896 2.8125 14.3586C1.45833 13.1275 0.78125 11.4987 0.78125 9.4722C0.78125 7.79606 1.2358 6.33299 2.14489 5.08299C0.954529 -0.891449 2.14489 4.10855 5.83807 2.17106C7.3911 1.4703 1.49148 0.108551 11.0938 1.11992C12.4545 -2.39143 13.2812 3.60855 16.3068 2.15686C18.4545 0.108571 18.8494 4.10857 18.8494 5.48072C20.8665 4.91254 21.2121 7.5972 21.25 9.1597L19.4545 6.60857L17.9545 7.01481Z" fill="#FF1695"/>
<path d="M24.2928 30.6086V1.51765H28.682V26.8302H41.8638V30.6086H24.2928Z" fill="black"/>
<path d="M48.6601 1.51765V30.6086H44.2709V1.51765H48.6601Z" fill="black"/>
<path d="M52.4521 30.6086V1.51765H62.8214C65.0847 1.51765 66.9597 1.92958 68.4464 2.75345C69.9332 3.57731 69.4545 10.6086 71.7845 6.13413C72.5232 7.55458 74.5166 13.6086 72.4545 10.9353C72.4545 12.725 71.2586 22.1086 68.9545 18.6086C67.7586 24.6086 66.4545 24.6086 65.8754 19.6086C58.9119 18.5716 60.4545 21.6086 58.9545 18.1086L56.8413 20.4017V16.6597H62.4095C63.9545 19.1455 64.0644 16.2572 64.9545 15.7648C65.9545 18.1086 67.4332 14.7373 67.8499 13.8756C68.9545 19.2165 68.9545 13.1086 68.4749 10.9353C70.4545 13.8756 68.2665 6.46082 67.8499 5.60855C67.4332 4.75628 65.8754 9.60855 65.8754 6.00629C63.4545 8.60855 63.4545 12.6086 62.3527 5.28186H56.8413V30.6086H52.4521Z" fill="#FF1695"/>
<path d="M74.8095 30.6086H70.1504L80.6192 1.51765H85.6902L96.159 30.6086H91.4999L83.2754 6.80174H83.0481L74.8095 30.6086ZM78.6162 19.6086H87.6997L88.8402 22.9097H77.4738L78.6162 19.6086Z" fill="black"/>
</svg>
